<svg width="93" height="38" viewBox="0 0 93 38" fill="none" xmlns="http://www.w3.org/2000/svg">
<path d="M2.41478 38C1.78347 38 1.27841 37.7546 0.899625 37.2638C0.520836 36.7729 0.410355 36.2267 0.568184 35.625L7.67049 7.125L7.57579 5.795C7.54422 5.25667 7.35483 4.78958 7.00761 4.39375C6.66038 3.99792 6.21846 3.8 5.68184 3.8C5.14522 3.8 4.69541 3.98208 4.33241 4.34625C3.9694 4.71042 3.78789 5.16167 3.78789 5.7V7.6C3.78789 8.13833 3.60639 8.58958 3.24339 8.95375C2.88038 9.31792 2.43057 9.5 1.89395 9.5C1.35733 9.5 0.907516 9.31792 0.54451 8.95375C0.181503 8.58958 0 8.13833 0 7.6V5.7C0 4.11667 0.552401 2.77083 1.6572 1.6625C2.76201 0.554167 4.10355 0 5.68184 0H26.61C28.1251 0 29.4272 0.514583 30.5162 1.54375C31.6053 2.57292 32.1971 3.8475 32.2918 5.3675L33.9964 36.005C34.0279 36.5433 33.8543 37.0104 33.4755 37.4062C33.0967 37.8021 32.639 38 32.1024 38H2.41478ZM4.92426 34.2H9.32769L8.42807 19.76L4.92426 34.2ZM13.1629 34.2H30.1138L28.5039 5.605C28.4723 5.09833 28.2751 4.67083 27.9121 4.3225C27.549 3.97417 27.115 3.8 26.61 3.8H11.0322C11.1585 4.11667 11.2374 4.42542 11.269 4.72625C11.3006 5.02708 11.3321 5.35167 11.3637 5.7L13.1629 34.2ZM20.3599 30.4C20.7703 30.4 21.1096 30.2654 21.3779 29.9963C21.6462 29.7271 21.7804 29.3867 21.7804 28.975V22.8C22.6011 22.61 23.2798 22.1746 23.8164 21.4937C24.353 20.8129 24.6213 20.0292 24.6213 19.1425V12.35C24.6213 12.0967 24.5266 11.875 24.3372 11.685C24.1478 11.495 23.9269 11.4 23.6743 11.4C23.4218 11.4 23.2009 11.495 23.0115 11.685C22.8221 11.875 22.7274 12.0967 22.7274 12.35V18.5725H21.3069V12.35C21.3069 12.0967 21.2122 11.875 21.0228 11.685C20.8334 11.495 20.6125 11.4 20.3599 11.4C20.1074 11.4 19.8864 11.495 19.6971 11.685C19.5077 11.875 19.413 12.0967 19.413 12.35V18.5725H17.9925V12.35C17.9925 12.0967 17.8978 11.875 17.7084 11.685C17.519 11.495 17.2981 11.4 17.0455 11.4C16.793 11.4 16.572 11.495 16.3826 11.685C16.1933 11.875 16.0986 12.0967 16.0986 12.35V19.1425C16.0986 20.0292 16.3669 20.8129 16.9035 21.4937C17.4401 22.1746 18.1188 22.61 18.9395 22.8V28.975C18.9395 29.3867 19.0736 29.7271 19.3419 29.9963C19.6102 30.2654 19.9496 30.4 20.3599 30.4Z" fill="white"/>
<path d="M78.1035 37.354V16.954H84.4935C86.7135 16.954 88.6135 17.464 90.1935 18.484C91.7735 19.484 92.5635 21.154 92.5635 23.494C92.5435 25.814 91.6835 27.524 89.9835 28.624C88.3035 29.704 86.3835 30.244 84.2235 30.244H81.9735V37.354H78.1035ZM84.3735 20.194H81.9735V27.034H84.4335C85.5935 27.034 86.5335 26.774 87.2535 26.254C87.9735 25.714 88.3735 24.874 88.4535 23.734C88.4535 22.414 88.0935 21.494 87.3735 20.974C86.6535 20.454 85.6535 20.194 84.3735 20.194Z" fill="white"/>
<path d="M59.8809 37.354V16.954H66.2709C68.4909 16.954 70.3909 17.464 71.9709 18.484C73.5509 19.484 74.3409 21.154 74.3409 23.494C74.3209 25.814 73.4609 27.524 71.7609 28.624C70.0809 29.704 68.1609 30.244 66.0009 30.244H63.7509V37.354H59.8809ZM66.1509 20.194H63.7509V27.034H66.2109C67.3709 27.034 68.3109 26.774 69.0309 26.254C69.7509 25.714 70.1509 24.874 70.2309 23.734C70.2309 22.414 69.8709 21.494 69.1509 20.974C68.4309 20.454 67.4309 20.194 66.1509 20.194Z" fill="white"/>
<path d="M47.51 22.294L44.84 29.404H50.24L47.51 22.294ZM49.25 16.954L57.17 36.814L53.27 37.354L51.44 32.554H43.7L41.9 37.354H38L45.95 16.954H49.25Z" fill="white"/>
<path d="M91.9739 0.645996V13.354H89.6519V0.843996L91.9739 0.645996Z" fill="white"/>
<path d="M87.1926 0.645996V13.354H84.8706V0.843996L87.1926 0.645996Z" fill="white"/>
<path d="M79.4537 13.57C77.9417 13.57 76.7477 13.156 75.8717 12.328C75.0077 11.5 74.5757 10.39 74.5757 8.99802C74.5757 7.60602 74.9657 6.49002 75.7457 5.65001C76.5377 4.81001 77.6117 4.39001 78.9677 4.39001C80.3357 4.39001 81.3377 4.84601 81.9737 5.75801C82.6217 6.65801 82.9457 7.72602 82.9457 8.96202V9.68202H77.0597C77.1677 10.258 77.4317 10.72 77.8517 11.068C78.2717 11.404 78.8237 11.572 79.5077 11.572C79.9037 11.572 80.2577 11.524 80.5697 11.428C80.8937 11.32 81.2657 11.17 81.6857 10.978L82.3697 12.67C81.9617 12.982 81.4637 13.21 80.8757 13.354C80.2997 13.498 79.8257 13.57 79.4537 13.57ZM80.7317 8.11602C80.6117 7.52802 80.3957 7.09601 80.0837 6.82001C79.7717 6.53201 79.3817 6.38801 78.9137 6.38801C78.4337 6.38801 78.0317 6.53801 77.7077 6.83801C77.3837 7.12601 77.1737 7.55202 77.0777 8.11602H80.7317Z" fill="white"/>
<path d="M73.6385 13.174C73.4465 13.33 73.1705 13.456 72.8105 13.552C72.4625 13.66 72.1505 13.714 71.8745 13.714C70.7945 13.714 69.9425 13.444 69.3185 12.904C68.7065 12.352 68.4005 11.572 68.4005 10.564V6.44202H67.2305V4.64202H68.4005V2.57202L70.7225 2.15802V4.64202H72.3065L73.0265 6.44202H70.7225V10.15C70.7225 10.606 70.8305 10.984 71.0465 11.284C71.2625 11.572 71.5805 11.716 72.0005 11.716C72.1565 11.716 72.3125 11.698 72.4685 11.662C72.6245 11.626 72.7865 11.566 72.9545 11.482L73.6385 13.174Z" fill="white"/>
<path d="M65.5991 6.98202C65.1791 6.79002 64.7891 6.64601 64.4291 6.55001C64.0691 6.44201 63.6851 6.38801 63.2771 6.38801C62.9771 6.38801 62.7431 6.44801 62.5751 6.56802C62.4191 6.67601 62.3411 6.83202 62.3411 7.03602C62.3411 7.18002 62.4371 7.31802 62.6291 7.45002C62.8331 7.58202 63.1571 7.72602 63.6011 7.88202C64.3331 8.14602 65.0111 8.51802 65.6351 8.99802C66.2591 9.46602 66.5711 10.078 66.5711 10.834C66.5711 11.698 66.2591 12.37 65.6351 12.85C65.0231 13.33 64.1231 13.57 62.9351 13.57C62.5631 13.57 62.0651 13.498 61.4411 13.354C60.8291 13.21 60.3191 12.982 59.9111 12.67L60.6131 10.978C61.0331 11.17 61.4351 11.32 61.8191 11.428C62.2151 11.524 62.5751 11.572 62.8991 11.572C63.3311 11.572 63.6611 11.512 63.8891 11.392C64.1171 11.272 64.2311 11.116 64.2311 10.924C64.2311 10.684 64.1171 10.468 63.8891 10.276C63.6611 10.084 63.3011 9.91002 62.8091 9.75401C62.1131 9.52601 61.4531 9.20201 60.8291 8.78201C60.2171 8.35001 59.9111 7.77402 59.9111 7.05402C59.9111 6.22602 60.2171 5.57801 60.8291 5.11001C61.4411 4.63002 62.2691 4.39001 63.3131 4.39001C63.6851 4.39001 64.1651 4.46801 64.7531 4.62401C65.3411 4.78001 65.8571 5.00801 66.3011 5.30801L65.5991 6.98202Z" fill="white"/>
<path d="M55.1783 13.57C53.6663 13.57 52.4723 13.156 51.5963 12.328C50.7323 11.5 50.3003 10.39 50.3003 8.99802C50.3003 7.60602 50.6903 6.49002 51.4703 5.65001C52.2623 4.81001 53.3363 4.39001 54.6923 4.39001C56.0603 4.39001 57.0623 4.84601 57.6983 5.75801C58.3463 6.65801 58.6703 7.72602 58.6703 8.96202V9.68202H52.7843C52.8923 10.258 53.1563 10.72 53.5763 11.068C53.9963 11.404 54.5483 11.572 55.2323 11.572C55.6283 11.572 55.9823 11.524 56.2943 11.428C56.6183 11.32 56.9903 11.17 57.4103 10.978L58.0943 12.67C57.6863 12.982 57.1883 13.21 56.6003 13.354C56.0243 13.498 55.5503 13.57 55.1783 13.57ZM56.4563 8.11602C56.3363 7.52802 56.1203 7.09601 55.8083 6.82001C55.4963 6.53201 55.1063 6.38801 54.6383 6.38801C54.1583 6.38801 53.7563 6.53801 53.4323 6.83801C53.1083 7.12601 52.8983 7.55202 52.8023 8.11602H56.4563Z" fill="white"/>
<path d="M43.904 1.11401C45.092 1.11401 46.058 1.37801 46.802 1.90601C47.546 2.42201 47.918 3.29801 47.918 4.53401C47.918 4.99001 47.81 5.40401 47.594 5.77601C47.39 6.13601 47.12 6.44801 46.784 6.71201C47.336 7.00001 47.786 7.39001 48.134 7.88201C48.494 8.37401 48.674 8.99801 48.674 9.75401C48.674 10.882 48.278 11.764 47.486 12.4C46.706 13.036 45.662 13.354 44.354 13.354H39.332V1.11401H43.904ZM43.562 3.05801H41.654V6.10001H43.382C44.03 6.10001 44.534 5.98001 44.894 5.74001C45.266 5.48801 45.452 5.09801 45.452 4.57001C45.452 3.99401 45.284 3.59801 44.948 3.38201C44.612 3.16601 44.15 3.05801 43.562 3.05801ZM44.336 7.99001H41.654V11.428H44.174C44.798 11.428 45.296 11.284 45.668 10.996C46.052 10.708 46.244 10.3 46.244 9.77201C46.244 9.19601 46.07 8.75801 45.722 8.45801C45.374 8.14601 44.912 7.99001 44.336 7.99001Z" fill="white"/>
</svg>
