<svg width="45" height="35" viewBox="0 0 45 35" fill="none" xmlns="http://www.w3.org/2000/svg">
<path d="M2.5 5C1.79167 5 1.19792 4.76042 0.71875 4.28125C0.239583 3.80208 0 3.20833 0 2.5C0 1.79167 0.239583 1.19792 0.71875 0.71875C1.19792 0.239583 1.79167 0 2.5 0H42.5C43.2083 0 43.8021 0.239583 44.2812 0.71875C44.7604 1.19792 45 1.79167 45 2.5C45 3.20833 44.7604 3.80208 44.2812 4.28125C43.8021 4.76042 43.2083 5 42.5 5H2.5ZM2.5 35C1.79167 35 1.19792 34.7604 0.71875 34.2812C0.239583 33.8021 0 33.2083 0 32.5C0 31.7917 0.239583 31.1979 0.71875 30.7188C1.19792 30.2396 1.79167 30 2.5 30H42.5C43.2083 30 43.8021 30.2396 44.2812 30.7188C44.7604 31.1979 45 31.7917 45 32.5C45 33.2083 44.7604 33.8021 44.2812 34.2812C43.8021 34.7604 43.2083 35 42.5 35H2.5ZM2.5 20C1.79167 20 1.19792 19.7604 0.71875 19.2812C0.239583 18.8021 0 18.2083 0 17.5C0 16.7917 0.239583 16.1979 0.71875 15.7188C1.19792 15.2396 1.79167 15 2.5 15H42.5C43.2083 15 43.8021 15.2396 44.2812 15.7188C44.7604 16.1979 45 16.7917 45 17.5C45 18.2083 44.7604 18.8021 44.2812 19.2812C43.8021 19.7604 43.2083 20 42.5 20H2.5Z" fill="white"/>
</svg>
