<svg width="30" height="30" viewBox="0 0 30 30" fill="none" xmlns="http://www.w3.org/2000/svg">
<rect width="30" height="30" rx="5" fill="white"/>
<path d="M6.75 24.2571H10.875V17.4C10.875 17.0114 11.0068 16.6857 11.2703 16.4229C11.5339 16.16 11.8604 16.0286 12.25 16.0286H17.75C18.1396 16.0286 18.4661 16.16 18.7297 16.4229C18.9932 16.6857 19.125 17.0114 19.125 17.4V24.2571H23.25V11.9143L15 5.74286L6.75 11.9143V24.2571ZM4 24.2571V11.9143C4 11.48 4.0974 11.0686 4.29219 10.68C4.48698 10.2914 4.75625 9.97143 5.1 9.72L13.35 3.54857C13.8313 3.18286 14.3813 3 15 3C15.6187 3 16.1687 3.18286 16.65 3.54857L24.9 9.72C25.2437 9.97143 25.513 10.2914 25.7078 10.68C25.9026 11.0686 26 11.48 26 11.9143V24.2571C26 25.0114 25.7307 25.6571 25.1922 26.1943C24.6536 26.7314 24.0063 27 23.25 27H17.75C17.3604 27 17.0339 26.8686 16.7703 26.6057C16.5068 26.3429 16.375 26.0171 16.375 25.6286V18.7714H13.625V25.6286C13.625 26.0171 13.4932 26.3429 13.2297 26.6057C12.9661 26.8686 12.6396 27 12.25 27H6.75C5.99375 27 5.34635 26.7314 4.80781 26.1943C4.26927 25.6571 4 25.0114 4 24.2571Z" fill="#E76C1F"/>
</svg>
