<svg width="22" height="24" viewBox="0 0 22 24" fill="none" xmlns="http://www.w3.org/2000/svg">
<path d="M2.75 21.2571H6.875V14.4C6.875 14.0114 7.00677 13.6857 7.27031 13.4229C7.53385 13.16 7.86042 13.0286 8.25 13.0286H13.75C14.1396 13.0286 14.4661 13.16 14.7297 13.4229C14.9932 13.6857 15.125 14.0114 15.125 14.4V21.2571H19.25V8.91429L11 2.74286L2.75 8.91429V21.2571ZM0 21.2571V8.91429C0 8.48 0.0973958 8.06857 0.292188 7.68C0.486979 7.29143 0.75625 6.97143 1.1 6.72L9.35 0.548571C9.83125 0.182857 10.3813 0 11 0C11.6187 0 12.1687 0.182857 12.65 0.548571L20.9 6.72C21.2437 6.97143 21.513 7.29143 21.7078 7.68C21.9026 8.06857 22 8.48 22 8.91429V21.2571C22 22.0114 21.7307 22.6571 21.1922 23.1943C20.6536 23.7314 20.0063 24 19.25 24H13.75C13.3604 24 13.0339 23.8686 12.7703 23.6057C12.5068 23.3429 12.375 23.0171 12.375 22.6286V15.7714H9.625V22.6286C9.625 23.0171 9.49323 23.3429 9.22969 23.6057C8.96615 23.8686 8.63958 24 8.25 24H2.75C1.99375 24 1.34635 23.7314 0.807813 23.1943C0.269271 22.6571 0 22.0114 0 21.2571Z" fill="white"/>
</svg>
