<svg xmlns="http://www.w3.org/2000/svg" width="91" height="91" viewBox="0 0 91 91" fill="none">
  <title>Milkshakes</title>
  <defs>
    <linearGradient id="shake" x1="27" y1="39" x2="63" y2="72" gradientUnits="userSpaceOnUse">
      <stop stop-color="#FF9E16"/>
      <stop offset="1" stop-color="#E65B05"/>
    </linearGradient>
    <linearGradient id="cream" x1="34" y1="9" x2="58" y2="34" gradientUnits="userSpaceOnUse">
      <stop stop-color="#FFF0C8"/>
      <stop offset="1" stop-color="#F8C979"/>
    </linearGradient>
    <linearGradient id="glass" x1="26" y1="34" x2="64" y2="76" gradientUnits="userSpaceOnUse">
      <stop stop-color="#FFE5B3"/>
      <stop offset="1" stop-color="#F4B85F"/>
    </linearGradient>
  </defs>

  <!-- striped straw -->
  <path d="M57.5 25.5 72.5 5.5" stroke="#3B1B0B" stroke-width="8" stroke-linecap="round"/>
  <path d="M57.5 25.5 72.5 5.5" stroke="#FFE1A8" stroke-width="4.2" stroke-linecap="round"/>
  <path d="m63.2 17.9 4.7 1.1M68.7 10.6l4.5 1.1" stroke="#E85A04" stroke-width="4.2"/>

  <!-- whipped cream -->
  <path d="M30.5 32.4c-2.2-3.8.5-8.1 5.9-8.8-1.7-4.6 1.5-8 7.1-7.9-.6-5.1 3.4-8.2 7.2-6.8 2.7 1 3.8 4.1 2.3 7.2 5.3.2 8 3.8 6.4 7.7 5.1.9 7.3 5.4 4.8 8.8Z" fill="url(#cream)" stroke="#3B1B0B" stroke-width="3.2" stroke-linejoin="round"/>
  <path d="M37.1 24.2c4.7.8 9.1.8 13.8-.1M42.6 16.4c3.3 1 6.6 1 10-.1" stroke="#B96A19" stroke-width="2.2" stroke-linecap="round"/>
  <path d="M35.1 28.6c7.5 1.6 15.4 1.6 23.1 0" stroke="#FFF4D5" stroke-width="2.1" stroke-linecap="round" opacity=".92"/>

  <!-- glass rim -->
  <path d="M24.3 33.5c0-3.5 3.1-5.8 6.7-5.8h30.3c3.6 0 6.6 2.3 6.6 5.8 0 3.4-3 5.7-6.6 5.7H31c-3.6 0-6.7-2.3-6.7-5.7Z" fill="#F47708" stroke="#3B1B0B" stroke-width="3.2"/>
  <path d="M30.5 32.5h31.2" stroke="#FFB12B" stroke-width="2.1" stroke-linecap="round"/>

  <!-- soda-fountain glass -->
  <path d="m28.2 38.2 5.3 31.1c.8 4.6 4 7.5 8.3 8.3v3.1h-9.1c-3 0-5.3 2-5.3 4.5v1.2h37.5v-1.2c0-2.5-2.3-4.5-5.3-4.5h-9.1v-3.1c4.3-.8 7.5-3.7 8.3-8.3l5.3-31.1Z" fill="url(#glass)" stroke="#3B1B0B" stroke-width="3.2" stroke-linejoin="round"/>
  <path d="m32 41.2 4.5 26.6c.6 3.7 3.7 6.2 7.3 6.2h4.6c3.6 0 6.7-2.5 7.3-6.2l4.5-26.6Z" fill="url(#shake)" stroke="#3B1B0B" stroke-width="2.6" stroke-linejoin="round"/>
  <path d="M38 44.2c1.1 8.3 2.5 16.4 4.1 24.5" stroke="#FFB038" stroke-width="3" stroke-linecap="round" opacity=".9"/>
  <path d="M55.2 44.4 52 65.6" stroke="#C54302" stroke-width="2.3" stroke-linecap="round"/>

  <!-- glass highlights and base detail -->
  <path d="M34.1 42.2 37.5 64" stroke="#FFF0C5" stroke-width="2" stroke-linecap="round" opacity=".78"/>
  <path d="M35.3 84.1h21.6" stroke="#FFF0C5" stroke-width="2" stroke-linecap="round" opacity=".88"/>
</svg>
