<svg width="23" height="22" viewBox="0 0 23 22" fill="none" xmlns="http://www.w3.org/2000/svg">
<path d="M4.89113 21.5902C4.51333 21.8201 4.04501 21.4824 4.14385 21.0513L5.76226 13.9935C5.8034 13.814 5.74263 13.6265 5.60407 13.5053L0.171941 8.75452C-0.159652 8.46451 0.0186478 7.91848 0.457487 7.88006L7.62822 7.25214C7.81322 7.23594 7.974 7.11854 8.04576 6.94725L10.8279 0.306767C10.9993 -0.102286 11.5788 -0.102286 11.7502 0.306766L14.5324 6.94725C14.6041 7.11854 14.7649 7.23594 14.9499 7.25214L22.1206 7.88006C22.5595 7.91848 22.7378 8.46451 22.4062 8.75452L16.9741 13.5053C16.8355 13.6265 16.7747 13.814 16.8159 13.9935L18.4343 21.0513C18.5331 21.4824 18.0648 21.8201 17.687 21.5902L11.549 17.855C11.3893 17.7579 11.1888 17.7579 11.0291 17.855L4.89113 21.5902Z" fill="#363534"/>
</svg>
