<svg width="21" height="24" viewBox="0 0 21 24" fill="none" xmlns="http://www.w3.org/2000/svg">
<path d="M1.49148 24C1.10155 24 0.789609 23.845 0.555651 23.535C0.321693 23.225 0.253455 22.88 0.350937 22.5L4.73765 4.5L4.67916 3.66C4.65967 3.32 4.54269 3.025 4.32823 2.775C4.11377 2.525 3.84081 2.4 3.50937 2.4C3.17793 2.4 2.90011 2.515 2.6759 2.745C2.45169 2.975 2.33958 3.26 2.33958 3.6V4.8C2.33958 5.14 2.22748 5.425 2.00327 5.655C1.77906 5.885 1.50123 6 1.16979 6C0.83835 6 0.560525 5.885 0.336315 5.655C0.112105 5.425 0 5.14 0 4.8V3.6C0 2.6 0.341189 1.75 1.02357 1.05C1.70595 0.35 2.53455 0 3.50937 0H16.4356C17.3714 0 18.1756 0.325 18.8483 0.975C19.5209 1.625 19.8864 2.43 19.9449 3.39L20.9978 22.74C21.0172 23.08 20.91 23.375 20.6761 23.625C20.4421 23.875 20.1594 24 19.828 24H1.49148ZM3.04146 21.6H5.76122L5.20557 12.48L3.04146 21.6ZM8.13005 21.6H18.5997L17.6054 3.54C17.5859 3.22 17.464 2.95 17.2398 2.73C17.0156 2.51 16.7475 2.4 16.4356 2.4H6.81403C6.89202 2.6 6.94076 2.795 6.96026 2.985C6.97975 3.175 6.99925 3.38 7.01875 3.6L8.13005 21.6ZM12.5753 19.2C12.8287 19.2 13.0383 19.115 13.204 18.945C13.3697 18.775 13.4526 18.56 13.4526 18.3V14.4C13.9595 14.28 14.3787 14.005 14.7101 13.575C15.0416 13.145 15.2073 12.65 15.2073 12.09V7.8C15.2073 7.64 15.1488 7.5 15.0318 7.38C14.9148 7.26 14.7784 7.2 14.6224 7.2C14.4664 7.2 14.3299 7.26 14.213 7.38C14.096 7.5 14.0375 7.64 14.0375 7.8V11.73H13.1601V7.8C13.1601 7.64 13.1017 7.5 12.9847 7.38C12.8677 7.26 12.7312 7.2 12.5753 7.2C12.4193 7.2 12.2828 7.26 12.1658 7.38C12.0488 7.5 11.9904 7.64 11.9904 7.8V11.73H11.113V7.8C11.113 7.64 11.0545 7.5 10.9375 7.38C10.8206 7.26 10.6841 7.2 10.5281 7.2C10.3721 7.2 10.2357 7.26 10.1187 7.38C10.0017 7.5 9.94322 7.64 9.94322 7.8V12.09C9.94322 12.65 10.1089 13.145 10.4404 13.575C10.7718 14.005 11.191 14.28 11.6979 14.4V18.3C11.6979 18.56 11.7808 18.775 11.9465 18.945C12.1122 19.115 12.3218 19.2 12.5753 19.2Z" fill="white"/>
</svg>
